<svg width="512" height="512" viewBox="0 0 512 512" xmlns="http://www.w3.org/2000/svg">
  <!-- Modern Minimalist Logo for "زاد" (Zad) -->
  
  <!-- Rounded Square Background -->
  <rect width="512" height="512" rx="140" fill="#1B5E20"/>
  
  <!-- Premium Ornaments -->
  <circle cx="256" cy="256" r="230" stroke="#C5A059" stroke-width="2" stroke-opacity="0.15" fill="none"/>
  <circle cx="256" cy="256" r="215" stroke="#C5A059" stroke-width="1" stroke-opacity="0.1" fill="none"/>

  <!-- Typography: زاد (R to L: Zayn, Alef, Dal) -->
  <g transform="translate(256, 256)" stroke="#C5A059" stroke-width="38" stroke-linecap="round" stroke-linejoin="round" fill="none">
    
    <!-- Alef (Center - Middle Letter) -->
    <path d="M0 -110 L0 100" />
    
    <!-- Zayn (Right - First Letter) -->
    <g transform="translate(110, 0)">
       <path d="M25 -60 C25 -60 25 80 -40 105" />
       <!-- Zayn Dot -->
       <circle cx="25" cy="-125" r="16" fill="#C5A059" stroke="none" />
    </g>

    <!-- Dal (Left - Last Letter) -->
    <g transform="translate(-110, 0)">
       <path d="M50 -50 C50 -50 -40 -50 -40 80 L50 105" />
    </g>
    
  </g>
  
  <!-- Subtle Corners Details -->
  <rect x="40" y="40" width="20" height="20" rx="4" fill="#C5A059" fill-opacity="0.1"/>
  <rect x="452" y="40" width="20" height="20" rx="4" fill="#C5A059" fill-opacity="0.1"/>
  <rect x="40" y="452" width="20" height="20" rx="4" fill="#C5A059" fill-opacity="0.1"/>
  <rect x="452" y="452" width="20" height="20" rx="4" fill="#C5A059" fill-opacity="0.1"/>
</svg>
